<mxfile host="app.diagrams.net" agent="Mozilla/5.0 (Windows NT 10.0; Win64; x64) AppleWebKit/537.36 (KHTML, like Gecko) Chrome/128.0.0.0 Safari/537.36 Edg/128.0.0.0" version="24.7.7">
  <diagram name="페이지-1" id="iytTboNfeMGZUbTeah0D">
    <mxGraphModel grid="1" page="1" gridSize="10" guides="1" tooltips="1" connect="1" arrows="1" fold="1" pageScale="1" pageWidth="827" pageHeight="1169" math="0" shadow="0">
      <root>
        <mxCell id="0" />
        <mxCell id="1" parent="0" />
        <mxCell id="lqq0dMOhGwz8Eku3s5Bx-2" style="edgeStyle=orthogonalEdgeStyle;rounded=0;orthogonalLoop=1;jettySize=auto;html=1;" edge="1" parent="1" source="lqq0dMOhGwz8Eku3s5Bx-1" target="lqq0dMOhGwz8Eku3s5Bx-3">
          <mxGeometry relative="1" as="geometry">
            <mxPoint x="380" y="560" as="targetPoint" />
          </mxGeometry>
        </mxCell>
        <mxCell id="lqq0dMOhGwz8Eku3s5Bx-1" value="시작" style="rounded=0;whiteSpace=wrap;html=1;" vertex="1" parent="1">
          <mxGeometry x="320" y="240" width="120" height="40" as="geometry" />
        </mxCell>
        <mxCell id="lqq0dMOhGwz8Eku3s5Bx-5" style="edgeStyle=orthogonalEdgeStyle;rounded=0;orthogonalLoop=1;jettySize=auto;html=1;exitX=0.5;exitY=1;exitDx=0;exitDy=0;" edge="1" parent="1" source="lqq0dMOhGwz8Eku3s5Bx-3" target="lqq0dMOhGwz8Eku3s5Bx-6">
          <mxGeometry relative="1" as="geometry">
            <mxPoint x="380.0344827586207" y="670" as="targetPoint" />
          </mxGeometry>
        </mxCell>
        <mxCell id="lqq0dMOhGwz8Eku3s5Bx-7" style="edgeStyle=orthogonalEdgeStyle;rounded=0;orthogonalLoop=1;jettySize=auto;html=1;" edge="1" parent="1" source="lqq0dMOhGwz8Eku3s5Bx-3" target="lqq0dMOhGwz8Eku3s5Bx-8">
          <mxGeometry relative="1" as="geometry">
            <mxPoint x="576.0000000000002" y="670" as="targetPoint" />
          </mxGeometry>
        </mxCell>
        <mxCell id="lqq0dMOhGwz8Eku3s5Bx-3" value="스크롤&lt;br&gt;이벤트&lt;div&gt;확인&lt;/div&gt;" style="rhombus;whiteSpace=wrap;html=1;" vertex="1" parent="1">
          <mxGeometry x="340" y="470" width="80" height="80" as="geometry" />
        </mxCell>
        <mxCell id="lqq0dMOhGwz8Eku3s5Bx-4" value="&lt;h1 style=&quot;margin-top: 0px;&quot;&gt;headerEffect&lt;/h1&gt;&lt;p&gt;스크롤을 내리면&amp;nbsp;&lt;/p&gt;&lt;p&gt;header 배경색이&amp;nbsp;&lt;/p&gt;&lt;p&gt;#ddd으로 바뀌는 기능&lt;/p&gt;&lt;p&gt;&lt;br&gt;&lt;/p&gt;&lt;p&gt;스크롤을 내리면 바로 바뀌는게아니라 이벤트 감지 후 이벤트를 확인한 다음 색이 바뀜&lt;/p&gt;&lt;p&gt;&lt;br&gt;&lt;/p&gt;&lt;p&gt;&lt;br&gt;&lt;/p&gt;&lt;div&gt;&lt;br&gt;&lt;/div&gt;" style="text;html=1;whiteSpace=wrap;overflow=hidden;rounded=0;" vertex="1" parent="1">
          <mxGeometry x="30" y="200" width="180" height="270" as="geometry" />
        </mxCell>
        <mxCell id="lqq0dMOhGwz8Eku3s5Bx-16" style="edgeStyle=orthogonalEdgeStyle;rounded=0;orthogonalLoop=1;jettySize=auto;html=1;" edge="1" parent="1" source="lqq0dMOhGwz8Eku3s5Bx-6" target="lqq0dMOhGwz8Eku3s5Bx-18">
          <mxGeometry relative="1" as="geometry">
            <mxPoint x="380.0000000000002" y="800" as="targetPoint" />
          </mxGeometry>
        </mxCell>
        <mxCell id="lqq0dMOhGwz8Eku3s5Bx-6" value="header의 배경이&lt;br&gt;#ddd로 바뀐다." style="rounded=1;whiteSpace=wrap;html=1;" vertex="1" parent="1">
          <mxGeometry x="320" y="674.5" width="120" height="40" as="geometry" />
        </mxCell>
        <mxCell id="lqq0dMOhGwz8Eku3s5Bx-21" value="" style="edgeStyle=orthogonalEdgeStyle;rounded=0;orthogonalLoop=1;jettySize=auto;html=1;" edge="1" parent="1" source="lqq0dMOhGwz8Eku3s5Bx-8" target="lqq0dMOhGwz8Eku3s5Bx-22">
          <mxGeometry relative="1" as="geometry">
            <mxPoint x="611" y="786.75" as="targetPoint" />
          </mxGeometry>
        </mxCell>
        <mxCell id="lqq0dMOhGwz8Eku3s5Bx-8" value="header의&amp;nbsp;&lt;div&gt;배경색이 그대로&lt;/div&gt;" style="rounded=1;whiteSpace=wrap;html=1;" vertex="1" parent="1">
          <mxGeometry x="546" y="670" width="130" height="44.5" as="geometry" />
        </mxCell>
        <mxCell id="lqq0dMOhGwz8Eku3s5Bx-10" value="&lt;h1 style=&quot;margin-top: 0px;&quot;&gt;https://codepen.io/Studio-kei/pen/qBzXJLY&lt;br&gt;&lt;/h1&gt;" style="text;html=1;whiteSpace=wrap;overflow=hidden;rounded=0;" vertex="1" parent="1">
          <mxGeometry x="20" y="950" width="560" height="80" as="geometry" />
        </mxCell>
        <mxCell id="lqq0dMOhGwz8Eku3s5Bx-12" value="yes" style="text;html=1;align=center;verticalAlign=middle;whiteSpace=wrap;rounded=0;" vertex="1" parent="1">
          <mxGeometry x="310" y="545" width="60" height="30" as="geometry" />
        </mxCell>
        <mxCell id="lqq0dMOhGwz8Eku3s5Bx-13" value="NO" style="text;html=1;align=center;verticalAlign=middle;whiteSpace=wrap;rounded=0;" vertex="1" parent="1">
          <mxGeometry x="420" y="470" width="60" height="30" as="geometry" />
        </mxCell>
        <mxCell id="lqq0dMOhGwz8Eku3s5Bx-15" value="스크롤 이벤트를&lt;div&gt;감지&lt;/div&gt;" style="rounded=0;whiteSpace=wrap;html=1;" vertex="1" parent="1">
          <mxGeometry x="320" y="330" width="120" height="50" as="geometry" />
        </mxCell>
        <mxCell id="lqq0dMOhGwz8Eku3s5Bx-18" value="종료" style="rounded=0;whiteSpace=wrap;html=1;" vertex="1" parent="1">
          <mxGeometry x="320" y="800" width="120" height="40" as="geometry" />
        </mxCell>
        <mxCell id="lqq0dMOhGwz8Eku3s5Bx-22" value="종료" style="rounded=0;whiteSpace=wrap;html=1;" vertex="1" parent="1">
          <mxGeometry x="551" y="800" width="120" height="40" as="geometry" />
        </mxCell>
      </root>
    </mxGraphModel>
  </diagram>
</mxfile>
